<?xml version="1.0" encoding="UTF-8"?><svg id="Layer_2" xmlns="http://www.w3.org/2000/svg" viewBox="0 0 190.19 232.57"><defs><style>.cls-1{fill:#f2e6d7;}.cls-1,.cls-2,.cls-3,.cls-4,.cls-5,.cls-6,.cls-7,.cls-8,.cls-9,.cls-10,.cls-11,.cls-12,.cls-13{stroke-width:0px;}.cls-2{fill:#070909;}.cls-3{fill:#f4c1a5;}.cls-4{fill:#e7e9ea;}.cls-5{fill:#c1c2c1;}.cls-6{fill:#eca57d;}.cls-7{fill:#665141;}.cls-8{fill:#978c85;}.cls-9{fill:#cf7e4e;}.cls-10{fill:#efd1b6;}.cls-14{fill:#f2caa7;stroke:#1d1d1b;stroke-miterlimit:10;stroke-width:1.13px;}.cls-11{fill:#d2a88d;}.cls-12{fill:#f2f2f2;}.cls-13{fill:#130907;}</style></defs><g id="_1PLANO"><g id="ISOTIPO"><g id="Logo_Tipo"><path class="cls-12" d="M2.86,110.5l-.94-.47c-.82-3.27-1.39-5.36-1.56-8.61q7.74,1.88,15.49,3.76c1.02,3.66-2.28,4,2.97,5.79-4.39,2.69-10.76-.38-15.96-.47Z"/><path class="cls-12" d="M187.49,101.74c-.01.06.99-.26.63,1.1-.62,2.29-1.92,7.09-3.13,7.67q-8.14.7-16.27,1.41c6.25-2.86,2.59-5.46,4.22-6.73.59-.46,12.61-3,14.55-3.44Z"/><path class="cls-12" d="M188.43,99.86c.04-.19-.41-.63-.47-.63-3.09.04-13.04,2.67-17.37,2.97.6-12.09-2.64-23.93-7.2-35.05,3.61-11.72,6.45-23.82,5.95-36.14,15.04,17.38,23.02,41.02,20.34,63.99-.38,3.23-1.21,4.6-1.25,4.85Z"/><path class="cls-12" d="M7.24,121.45c-1-2.76-2.61-5.67-3.76-8.45,1.41.43,10.73,1.77,11.11,2.19,1.55,1.7-3.35,4.6,4.54,6.73q-5.95-.23-11.89-.47Z"/><path class="cls-12" d="M180.92,121.77q-5.95.23-11.89.47c9.25-4.04,3.66-5.59,5.48-7.04,2.3-.82,7.75-1.66,9.23-2.5.45,2.21-1.83,6.59-2.82,9.07Z"/><path class="cls-4" d="M171.21,125.21v9.86c5.82.34,12.13-4.48,14.08,3.76.44,1.85.91,3.71-1.1,4.54-13.19,4.84-26.5,9.59-39.59,14.71-1.88-.99,3.15-2.63,7.2-4.38,2.56-1.11,18.61-6.7,19.25-7.51.73-.92-1.01-3.07,0-4.07.79.59.39,3.22,1.56,3.44.59.11,10.6-4.12,10.8-4.85.64-2.37-2.12-6.49-5.79-2.66-1.96-1.58-8.81-.36-6.42,2.97-1.6.78-.32-2-2.19-2.82q-.08-4.93-.16-9.86c-2.12.68-15.72,10.57-16.43,11.27l-.63-1.88c5.01-3.59,9.46-8,14.24-11.89,1.52-.64,3.74-.38,5.16-.63Z"/><path class="cls-10" d="M66.7,153.37c-1.25,1.1-.42.84-.94,1.88-3.5-.75-3.64,5.5-3.76,8.14-2-.82-4.18-1.36-6.26-2.19,5.21-.2-1.07-2.28,1.41-11.58,2.49,1.83,8.38,3.1,9.54,3.76Z"/><path class="cls-10" d="M87.66,166.52l-1.88,1.25c-5.38-4.64-15.45-7.27-21.9-9.86,1.08-.72,1.34-1.58,1.88-2.66.52-1.03-.31-.77.94-1.88,2.49,1.41.47,2.12,1.41,3.13.75.81,12.98,4.04,19.56,10.01Z"/><path class="cls-2" d="M133.04,160.26c-10.86,3.32-30.76,13.04-38.02,22.22-1.86-.26,2.45-10.79,7.98-15.33,5.6-4.6,23.88-10.94,24.88-11.89,1.29-1.23-1.03-2.97,5.01-5.01q.08,5.01.16,10.01Z"/><path class="cls-2" d="M65.76,155.25c-.54,1.08-.79,1.94-1.88,2.66,6.46,2.59,16.52,5.21,21.9,9.86,2.87,2.48,7.81,9.84,7.04,13.77-8.25-8.89-19.79-13.64-30.82-18.15.11-2.64.26-8.89,3.76-8.14Z"/><path class="cls-2" d="M47.92,152.43c.15.91.26,4.53,0,5.63-2.42-.96-5.09-1.55-7.51-2.5-.8-.33-.91-5.25-.47-5.32l7.98,2.19Z"/><path class="cls-10" d="M151.81,137.73l.63,1.88c-2,1.96-1.43,3.91-.47,6.57,1.66-.4,11.92-8.26,12.52-7.82.11.08.54,2.43.47,2.66-.47,1.61-16.88,7.76-13.14,12.67-4.05,1.75-9.08,3.39-7.2,4.38-1.22.48-2.52.77-3.76,1.25-.25-.22-2.08-.64-2.19-.63-.56-3.72-1.49-2.83-.94.31-.7.15-3.06,1.32-3.91,1.56-.81.23-.74-.33-.78-.31q-.08-5.01-.16-10.01c-6.03,2.04-3.71,3.78-5.01,5.01-1,.95-19.28,7.29-24.88,11.89l-1.25-1.56c7.04-6.36,13.68-6.84,14.55-7.82.41-.46.57-2.79.94-3.13,1.39-1.25.44,2.09.63,2.19,1.96,1.03,2.01-3.88,3.91-3.91q.08-1.02.16-2.03l.94,4.38c.95-1.68-.38-2.37.63-3.13.55-.42,10.95-3.71,12.83-5.32q1.72,1.1,3.44,2.19c9.87,1.62,1.13-.17-2.66-2.35,4.96-2.8,10.07-5.6,14.71-8.92Z"/><path class="cls-2" d="M138.67,158.69c-.14.01-.32.18-.94.31-.55-3.14.38-4.03.94-.31Z"/><path class="cls-2" d="M142.43,156.81c-1.22-1.16-1.58-.33-2.19.94-3.38-.45,3.45-5.38,2.19-.94Z"/><path class="cls-2" d="M147.59,147.43c.97-.19,1.96,1.16.94,1.56-1.49.6-2.53-1.25-.94-1.56Z"/><path class="cls-9" d="M142.43,156.81c-.22.78-1.5,1.03-2.19.94.61-1.27.97-2.1,2.19-.94Z"/><path class="cls-2" d="M36.97,140.23c-.07.24-.6,4.55-.63,5.01-3.97-2.44-8.68-3.96-12.05-7.2-2.31,5.49,7.12,6.24,12.36,11.27,0,1.56,0,3.13,0,4.69-6.4-2.56-12.85-5.05-19.09-7.98,1.93-5.94,2.05-12.13,2.35-18.31,2.97,2.83,7.82,5.31,10.64,7.51,1.28,1,1.06,3,6.42,5.01Z"/><path class="cls-10" d="M36.34,145.24c-.06,1.16.31,2.76.31,4.07-5.24-5.02-14.67-5.77-12.36-11.27,3.37,3.24,8.08,4.76,12.05,7.2Z"/><path class="cls-11" d="M41.66,145.86c-.19.07-1.76.85-1.88.94-1.97,1.58,2.32,4.53,2.82,2.66.07-.25-3.66-2.93,1.41-2.03,1.1.19,2.98,2.71,2.03.63,1.21,1.38,1.52,2.22,1.88,4.38l-7.98-2.19c-.44.07-.33,4.99.47,5.32-1.27-.5-2.49-1.06-3.76-1.56,0-1.56,0-3.13,0-4.69,0-1.3-.37-2.9-.31-4.07.02-.45.56-4.76.63-5.01.03-.09,1.01-.57.94-1.56,1.02.73,6.49,3.7,6.57,4.54.06.61-1.25,1.45-1.72,1.41-1.45-.14-.77-2.27-1.88-2.19-.66.05-2.09,2.43.78,3.44Z"/><path class="cls-11" d="M51.36,159.63c-1.15-.46-2.32-1.12-3.44-1.56.26-1.1.15-4.72,0-5.63-.36-2.16-.67-3-1.88-4.38-3.31-3.78-4.41-.4-6.26-1.25.11-.09,1.69-.87,1.88-.94,1.15-.44,5.58-.22,3.44-2.35.38-.61,4.53,2.21,4.69,2.5.52.94.9,11.43,1.56,13.61Z"/><path class="cls-2" d="M46.04,148.05c.94,2.08-.93-.43-2.03-.63-5.07-.9-1.34,1.78-1.41,2.03-.49,1.87-4.79-1.08-2.82-2.66,1.85.85,2.94-2.53,6.26,1.25Z"/><path class="cls-4" d="M37.91,138.66c.08.99-.91,1.48-.94,1.56-5.35-2-5.14-4.01-6.42-5.01-2.82-2.2-7.67-4.68-10.64-7.51-.3,6.17-.41,12.37-2.35,18.31,6.24,2.93,12.69,5.42,19.09,7.98,1.26.5,2.49,1.06,3.76,1.56,2.42.96,5.09,1.55,7.51,2.5,1.12.44,2.29,1.1,3.44,1.56,1.44.58,2.94.99,4.38,1.56,2.07.83,4.25,1.37,6.26,2.19,11.03,4.51,22.58,9.26,30.82,18.15.77-3.93-4.17-11.29-7.04-13.77l1.88-1.25c6.41,5.81,5.41,12.19,6.1,12.2,2.19-6.34,3.06-8.69,7.98-13.14l1.25,1.56c-5.53,4.54-9.84,15.08-7.98,15.33,7.26-9.18,27.16-18.9,38.02-22.22.04-.01-.03.55.78.31.86-.25,3.21-1.42,3.91-1.56.62-.13.8-.3.94-.31.11-.01,1.94.41,2.19.63-17.11,6.72-33.98,12.83-46.78,26.6-6.57-7.41-13.37-11.72-22.22-15.96-9.38-4.5-64.95-24.72-67.59-27.22-2.77-2.62.58-8.77,1.56-9.07q6.49,1.02,12.99,2.03-.47-5.4-.94-10.8c1.41.3,2.81.64,4.22.94,3.89,4.08,9.32,6.27,12.52,10.95,1,.71,2.31,1.18,3.29,1.88Z"/><path class="cls-2" d="M6.77,136.16c12.46,3.02,12.95-.98,10.48,9.54-4.01-1.69-17.27-4.19-10.48-9.54Z"/><path class="cls-4" d="M8.65,139.29c2.09-1.56.72.46.31,2.19-.75.17-.55-2.02-.31-2.19Z"/><path class="cls-4" d="M11.46,139.6c.66,3.72-1.28,4.22-.16.16l.16-.16Z"/><path class="cls-2" d="M151.81,153.69c-3.74-4.92,12.67-11.06,13.14-12.67.07-.23-.36-2.58-.47-2.66-.59-.44-10.86,7.42-12.52,7.82-.96-2.67-1.53-4.61.47-6.57.71-.7,14.31-10.59,16.43-11.27q.08,4.93.16,9.86c1.87.82.59,3.59,2.19,2.82-2.4-3.33,4.46-4.55,6.42-2.97,3.67-3.83,6.43.29,5.79,2.66-.2.73-10.21,4.96-10.8,4.85-1.17-.22-.77-2.85-1.56-3.44-1.01,1,.73,3.15,0,4.07-.64.81-16.69,6.4-19.25,7.51Z"/><path class="cls-4" d="M179.82,139.29c1.2-.02-1.02,2.65-.78.78,0-.05.73-.78.78-.78Z"/><path class="cls-2" d="M38.53,5.98c6.63,4.64,13.58,8.96,19.87,14.08,7.87,6.42,14.86,14.99,15.96,15.02,1.59.04-.02-1.42,1.56-2.5,4.04-2.76,34.42-3.22,36.77.47.21.32,0,2.37.78,2.35,10.6-11.61,23.13-21.02,36.14-29.73,2.21-1.48,5.49-1.84,4.54-4.69,3.24,2.65,5.06-.66,7.82-.94,6.75-.69,5.96,8.29,6.42,9.23.32.66,2.79.8,2.19,2.82-.26.86-1.3-.13-1.56.63-.26.73,1.32,10.85.31,13.46,2.35,2.12.06,3.91,0,4.85.5,12.32-2.34,24.42-5.95,36.14,4.56,11.12,7.8,22.96,7.2,35.05,4.33-.31,14.28-2.93,17.37-2.97.06,0,.51.44.47.63-.23,1.2-.91,1.78-.94,1.88-1.94.44-13.96,2.98-14.55,3.44-1.63,1.27,2.03,3.87-4.22,6.73q8.14-.7,16.27-1.41c.6,1.51-.49,1.76-1.25,2.19-1.48.84-6.93,1.68-9.23,2.5-1.81,1.45,3.77,3-5.48,7.04q5.95-.23,11.89-.47c-.04.1.66.65-.47,2.19-3.11.22-6.16.71-9.23,1.25-1.42.25-3.64-.02-5.16.63-4.78,3.89-9.23,8.3-14.24,11.89-4.64,3.32-9.75,6.12-14.71,8.92,3.79,2.18,12.53,3.97,2.66,2.35q-1.72-1.1-3.44-2.19c-1.88,1.61-12.28,4.9-12.83,5.32-1.01.76.32,1.45-.63,3.13l-.94-4.38q-.08,1.02-.16,2.03c-1.9.03-1.95,4.94-3.91,3.91-.19-.1.76-3.44-.63-2.19-.37.34-.53,2.66-.94,3.13-.87.99-7.51,1.46-14.55,7.82-4.92,4.45-5.79,6.8-7.98,13.14-.7-.01.3-6.39-6.1-12.2-6.58-5.97-18.81-9.2-19.56-10.01-.94-1.01,1.08-1.72-1.41-3.13-1.16-.66-7.06-1.93-9.54-3.76-2.48,9.3,3.8,11.38-1.41,11.58-1.44-.58-2.94-.99-4.38-1.56-.67-2.18-1.05-12.67-1.56-13.61-.16-.3-4.31-3.11-4.69-2.5,2.14,2.13-2.29,1.91-3.44,2.35-2.88-1.01-1.44-3.39-.78-3.44,1.11-.08.43,2.05,1.88,2.19.47.05,1.78-.8,1.72-1.41-.08-.84-5.56-3.81-6.57-4.54-.97-.7-2.29-1.17-3.29-1.88-3.2-4.68-8.62-6.88-12.52-10.95-1.41-.3-2.81-.63-4.22-.94-3.2-.69-7.18-.84-10.48-1.25-1.14-1.13-.12-2.09-.16-2.19q5.95.23,11.89.47c-7.89-2.12-2.99-5.03-4.54-6.73-.38-.42-9.7-1.76-11.11-2.19-.24-.58-1.49-1.99-.63-2.5,5.2.09,11.57,3.15,15.96.47-5.25-1.79-1.95-2.13-2.97-5.79q-7.74-1.88-15.49-3.76c0-.15-.5-.63-.31-1.88q9.15,1.41,18.31,2.82l.47-.47c-3.68-7.02,2.56-27.01,6.26-35.05-3.32-11.82-4.92-23.91-5.63-36.14-.06-1.03-1.1-1.01-.94-2.03,1.36-4.55.07-9.41.94-14.08-3.47-2.47.19-3.5.31-3.76.19-.39.27-5.93,1.88-8.45,3.41-5.36,9.89.08,10.48.16.77.1,2.3-2.4,2.97-.47.6,1.72-2.45-.21,3.44,3.91Z"/><path class="cls-4" d="M167.3,34.77c-.07,8.98-1.64,18.88-5.01,27.22,2.28-8.97,4.24-17.98,5.01-27.22Z"/><path class="cls-10" d="M158.7,49.48q.47-6.49.94-12.99-6.73-2.27-13.46-4.54c1.83-4.37,4.99-8.89,2.66-8.76-.43.02-4.89,5.9-5.48,6.73-.68.96-8.83,14.68-5.63,6.88,2.03-4.95,10.45-13.96,3.6-9.23-3.72,2.57-8.19,12.49-8.61,9.86-.09-.57,6.01-9.74,5.16-10.17-2.12.97-11.89,9.1-12.83,9.07-.13,0-1.31-.94-2.35-1.1,11.97-10.47,24.51-20.61,38.65-28.01l.47.47c2.32,14.65-.35,27.52-3.13,41.78Z"/><path class="cls-2" d="M156.35,19.75c.79,1.67,1.85,6.75-1.56,5.32-1.28-.53,1.1-5.51,1.56-5.32Z"/><path class="cls-2" d="M154.47,13.49c2.2-.44,1.92,2.73.63,3.13-2.45.75-2.08-2.84-.63-3.13Z"/><path class="cls-2" d="M148.53,16.31c2.01.31-1.02,3.79-1.25,3.76-1.23-.17.08-3.93,1.25-3.76Z"/><path class="cls-2" d="M155.1,30.7c1.84-.83,2.29,2.18.63,2.19-1,0-1.61-1.75-.63-2.19Z"/><path class="cls-2" d="M139.45,24.13c1.25-.17,1.26,1.36.31,1.56-1.3.27-1.5-1.41-.31-1.56Z"/><path class="cls-11" d="M158.7,49.48c-.19.97-1,7.08-1.41,7.2-3.8-4.9-9.09-8.21-13.61-12.36,3.04-6.4-.12-.45-.47-.47-2.79-.17,2.48-10.72,2.97-11.89q6.73,2.27,13.46,4.54-.47,6.49-.94,12.99Z"/><path class="cls-2" d="M147.28,44.16c3.51-1.07,9.2,3.39-.78.78-.16-.31.64-.74.78-.78Z"/><path class="cls-2" d="M147.28,40.41c7.94.8,6.13,3.32-.47.47l.47-.47Z"/><path class="cls-2" d="M149.47,47.29c.14-.05,2.24-.06,2.5,0,5.68,1.37-7.16,1.82-2.5,0Z"/><path class="cls-2" d="M147.59,36.96c.94.42,2.67.59,3.44.94,4.89,2.24-1.24,1.72-3.44-.94Z"/><path class="cls-1" d="M52.61,28.2l.94-2.82c1.4,1.08,12.31,8.78,12.2,9.54-.03.2-2.86,1.49-3.29,1.41-.63-.12-8.46-7.06-9.86-8.14Z"/><path class="cls-4" d="M21.48,33.83q2.5,13.77,5.01,27.54c-1.37.34-5.69-25.55-5.01-27.54Z"/><path class="cls-10" d="M53.55,25.38l-.94,2.82c-7.69-5.88.14,1.4,2.82,7.98,2.77,6.81-5.76-7.73-7.98-8.92-.96-.52-2.74-.21-2.66.78.05.66,8.51,10.95,5.16,10.8-1-.05-11.34-21.42-10.8-13.61.02.27,1.85,4.07,2.19,4.85-.87.21.66,1.33.31,2.35-.24.69-11.2,5.44-13.77,4.22-1.41-9.65-2.84-19.32-1.41-29.1,9.98,4.33,18.51,11.25,27.07,17.84Z"/><path class="cls-2" d="M30.24,21.94c3.64-.84,4.15,4.65-.63,2.82-1.05-.4-.85-2.48.63-2.82Z"/><path class="cls-2" d="M31.8,13.49c.88-.08,2.49.7,2.66,1.72-.47.8-2.35-2.03-4.22.47-1.06-.84.88-2.13,1.56-2.19Z"/><path class="cls-2" d="M43.07,20.06c1.11-.43,2.51.96,2.35,1.41-.57,1.6-4.02-.76-2.35-1.41Z"/><path class="cls-2" d="M30.55,30.39c.68-.08,2.14,1.64.94,2.19-1.82.83-2.42-2.02-.94-2.19Z"/><path class="cls-2" d="M37.75,16.94c1-.39,2.37.61,2.03,1.41-.65,1.53-3.53-.82-2.03-1.41Z"/><path class="cls-11" d="M27.89,36.65c2.57,1.22,13.53-3.53,13.77-4.22.35-1.01-1.18-2.14-.31-2.35,3.19,7.38,8.44,13.23,1.1,9.7,4.37,2.67-4.87,3.56-7.82,6.26-.51.47-.69.65,0,.63l8.92-3.6c-2.44,2.28-8.46,4.12-8.76,6.88,3.58-2.98,8.12-4.7,11.11-8.29l.47.47-14.55,14.24c-1.8-6.44-2.94-13.1-3.91-19.71Z"/><path class="cls-2" d="M37.12,38.53c1.37,1.61,1.41,3.35-.31,4.69q.16-2.35.31-4.69Z"/><path class="cls-10" d="M125.68,84.21c4.42-1.15,12.95,3.75,13.3,4.85.49,1.54-.54,3.72-.31,5.32l-13.3.16.31-10.33Z"/><path class="cls-1" d="M60.12,122.39c-.16,4.75,6.8,2.35,7.51,6.26-10.43-2.33-20.8-5.36-30.82-9.07-2.13-.79-7.41-3.55-9.7-4.38-.41-.15-8.25-1.98-4.07-1.56,6.88.69,25.08,9.06,37.08,8.76Z"/><path class="cls-1" d="M124.59,121.45c.35-1.56,3.4,1.02,2.5-3.76,15.55-1.02,24.11-7.72,38.8-10.17-9.24,4.64-32.03,12.96-41.31,13.93Z"/><path class="cls-10" d="M123.18,84.84v9.7c-8.43-.38-16.71,1.84-9.39-4.38,2.25-1.91,6.72-3.73,9.39-5.32Z"/><path class="cls-1" d="M150.72,58.87c7.84,5.93,16.2,38.91,13.77,39.74-.06.02-1.07-.42-1.1-.47-.32-.57-1.95-10.81-2.5-12.83-2.52-9.21-6.42-17.7-10.17-26.44Z"/><path class="cls-10" d="M65.6,85.47c.58-.46,10.84,4.25,11.42,8.61l-11.11.47-.31-9.07Z"/><path class="cls-10" d="M63.72,74.2c.79-.13,13.16,4.17,15.33,4.38-.09,9.42,1.21,5.75-8.14,1.56-2.88-1.29-6.05-2.2-9.07-3.13-1.16-.16,1.68-2.78,1.88-2.82Z"/><path class="cls-10" d="M33.84,99.24c-.97.8-.28,6.53.47,6.57.91.05.17-1.25.63-1.56.46-.31,9.29,1.88,10.8-.63,2.61,1.21,7.06.7,7.2,1.88-2.1-.2-4.41-.57-6.42-1.25l-1.88,3.76c-8.01-.61-15.93-1.93-23.63-4.22q4.77-.08,9.54-.16v-.63l-2.66-1.1q1.56-.55,3.13-1.1c2.82.51,1.01-.19,2.82-1.56Z"/><path class="cls-1" d="M37.75,59.81c-5.29,9.78-9.77,18.9-12.05,29.88-.27,1.29-.62,10.01-2.03,8.92-.46-.36.31-7.78.47-8.92,1.02-7.17,6.97-25.98,13.61-29.88Z"/><path class="cls-1" d="M132.41,124.9c-.05-.95-.74-1.63-.94-2.5,10.26-.51,25.37-7.33,35.99-9.23-11.49,4.32-22.84,9.88-35.05,11.73Z"/><path class="cls-10" d="M70.61,65.44c3.74,1.66,10.33,1.3,9.86,2.97-.2.71-2.08.76-2.19.94-1.18,1.95,4.14,5.51-10.33.31q1.33-2.11,2.66-4.22Z"/><path class="cls-10" d="M116.3,66.07c1.91.05,4.07,3.38,3.76,3.76-6.99,1.51-11.92,5.23-10.95-2.19,1.81.02,6.54-1.58,7.2-1.56Z"/><path class="cls-10" d="M83.75,159.32c4.25,1.46,22.63-.31,23,.78.65,1.9-14.23,1.89-15.8,1.72-2.41-.26-5.09-1.27-7.2-2.5Z"/><path class="cls-10" d="M83.44,150.24c.35-.14,6.46.88,7.51.94,4.86.29,9.69-.93,8.61,1.41-.46,1-15.08.3-16.12-.16-.69-.31-.67-1.92,0-2.19Z"/><path class="cls-1" d="M90.48,158.07c1.17-.94,3.6.7,3.13-1.56,5.41.07,10.79.11,16.12-.94.61-12.57,3.23-4.57,2.03-.78-1.26,4.02-17.69,3.5-21.28,3.29Z"/><path class="cls-10" d="M93.61,156.5c.47,2.27-1.96.62-3.13,1.56-1.16-.07-8.39-.74-8.45-1.41-.15-1.73,7.93-.2,11.58-.16Z"/><path class="cls-10" d="M50.58,146.49c.28-.06,4.96,2.33,5.16,2.66.7,1.16.67,5.89-2.5,3.13-.15-.42.94-.72.63-2.19-.23-1.08-6.27-2.94-3.29-3.6Z"/><path class="cls-10" d="M77.18,148.99c2.67-.98,1.88,6.03,1.56,6.26-2.76,1.98-2.36-5.97-1.56-6.26Z"/><path class="cls-3" d="M90.64,163.07c1.7.19,6.14-.26,6.88,0,3.14,1.11-7.04,2.48-6.88,0Z"/><path class="cls-4" d="M20.23,107.06l3.29.78c.15.64-2.97-.09-3.29-.78Z"/><path class="cls-5" d="M94.39,172.77l.47.16c-1.1,4.42-1.95,3.97-.47-.16Z"/><path class="cls-8" d="M133.51,134.91c.22.04.2.86.16,1.1-.26,1.33-2.84,3.91-.16-1.1Z"/><path class="cls-2" d="M45.73,103.62c-1.51,2.51-10.34.31-10.8.63-.45.31.28,1.62-.63,1.56-.74-.04-1.44-5.78-.47-6.57,1.74-1.33.91.99,3.29,1.88,1.17.44,3.03,0,4.07.63.21.12,2.23,4.78,2.97,1.41.34-1.55-1.56-2.04-1.56-2.19-.03-1.31,4.93-.34,3.13,2.66Z"/><path class="cls-3" d="M35.25,100.8c.27-.04.81,1.37,4.85,2.35-7.07,1.33-5.56-2.24-4.85-2.35Z"/><path class="cls-10" d="M127.09,117.7c.9,4.77-2.15,2.2-2.5,3.76-1.13.12-5.38.09-1.41.63,1.88.25,6.34.41,8.29.31.2.87.89,1.55.94,2.5.13,2.66-9.23,2.19-11.42,3.44,10.08,1.49,25.93-3.44,36.3-6.57,4.62-1.4,9.84-4.03,14.39-4.38q-10.95,4.22-21.9,8.45c-.59,3.64-11.38,8.96-15.65,11.27l-.47-.47c1.01-.69.93-5.27-.47-4.85-1.43.43,3.64,4.89-9.39,10.64-17.67,7.8-38.96,7.67-56.95.94-6.51-2.43-24.36-11.96-28.79-16.9-.34-.38.88-.7.31-1.25-.79-.77-18.2-6.2-20.65-7.51,3.04,0,7.86,2.42,11.27,3.44,11.17,3.35,27.58,8.33,38.65,7.51-.71-3.91-7.68-1.51-7.51-6.26,2.66-.07,6.25-.38,4.54-.94-.68-.22-8.22-1.1-14.08-2.82-7.94-2.32-16.71-6.76-25.03-8.76-.35-1.01.05-1.61,1.25-1.56,1.82.07,23.22,8.86,35.05,9.7,2.73.19,8.56.05,6.57-.63-4.21-1.43-24.33-3.27-32.86-9.07,18.39,1.82,29.01,6.94,48.5-.31.22-6.16.32-14.55-2.35-20.18-.16-.34-1.69-1.95-2.19-2.5q.31-7.51.63-15.02c.2-.29,6.08.37,6.26.63.3.43.85,4.54-2.97,1.72-2.63,2.97.5,7.44,1.56,1.88.75-.13,2.91,9.67,1.88-9.39-8.9,3-6.33-4.48-7.67-9.39-1.06-3.91-.31.14-.31.31-.03,9.74-12.45,1.16-21.75-1.88-.92.08-2.7,4.33-2.19,5.01l14.24,6.1-2.97,3.91q-7.04-2.35-14.08-4.69c-2.98,7.77,4.83,5.5,9.86,9.54-5.16,4.75-12.09,6.19-17.52,10.64,10.07,8.33,5.46-2.47,18.93-.16l.47,9.86-13.3.16c-.55-.39,0-9.8-1.25,0-4.04.23-8.96-.95-6.88,1.88,10.37-2.86,6.07,2.58,7.2,3.44,1.66-.16.05-3.85,1.25-4.38h12.83c.06,14,1.48,13.91,2.19,0h11.27q.39,4.15.78,8.29c-9.04,2.74-15.84,2.58-25.03,1.72-.13-1.17-4.58-.67-7.2-1.88,1.8-3-3.16-3.97-3.13-2.66,0,.15,1.9.64,1.56,2.19-.74,3.37-2.77-1.28-2.97-1.41-1.04-.62-2.89-.19-4.07-.63-2.38-.89-1.54-3.2-3.29-1.88-1.81,1.37,0,2.08-2.82,1.56-.53-.1-2.01-1.03-2.97-.94-1.22-9.48,4.51-25.92,9.23-34.27,20.45-36.2,82.07-36.92,106.4-10.33,10.81,11.82,16.31,30.88,17.21,46.63-11.12,1.79-.62-.36-.63-1.88l-.47-.47c-1.68,2.06-6,1.81-2.35.16-4.84-.74-2.31,2.15-2.82,5.01,2.88-2.07,9.1-.74,13.46-1.25-2.77,1.3-24.78,5.14-25.35,3.76-.21-.51.28-2.33-.16-2.66-1.25-.94-17.69,4.58-30.98-.31v-8.76h11.58c-.2,14.51,2.39,14.51,2.19,0h12.83c1.09.49-.25,5.72,1.25,4.69,1.69-1.15-3.81-5.31,5.95-4.38.15.01,2.45,2,1.72-.47-.48-1.64-7.29-.04-7.82-1.25-.48-7.11.37-4.91,4.38-9.07-4.81-4.99-13.18-6.71-13.61-7.35-.38-.56.87-.49.63-.94-.25-.46-1.94,1.19-4.85-2.66,1.34-.7,10.8-3.72,11.11-4.22.47-.75-.02-4,.16-5.16l-.47-.47q-7.35,2.5-14.71,5.01-1.8-1.64-3.6-3.29c2.06-1.25,14.14-5.38,14.86-6.1,1.12-1.11-.36-3.69-.16-5.16l-.47-.47c-7.22,2.63-14.41,5.47-21.9,7.2l-3.13-7.51c-.87,8.16,5.37,11.83-6.42,12.36.41,1.79.03,9.29.63,10.01,1.3,1.58,5.09-.04,2.66-4.22-1.31,7.55-3.17-.56-2.35-1.72.29-.41,4.91-.02,5.79-.16.95.42.67,18.96,1.72,7.98,7.08-.85,15.7-5.67,17.84-1.56-6.19,1.86-21.28,7.31-22.53,14.39-.47,2.66.35,12.35,0,16.59,19.1,7.98,29.98,2.7,48.19.63-8.08,3.98-16.99,6.37-25.82,7.98-2.52.46-15.48,1.49-5.63,1.88,1.84.07,3.65-.19,5.48-.31Z"/><path class="cls-7" d="M79.21,55.74l-.31.31c0-.18-.75-4.22.31-.31Z"/><path class="cls-10" d="M97.68,138.04c.43.93.09,2.45-.94,2.66.39.37.65.48.63,1.1-2.69-1.94-1.48.19-1.56.31-.15.2-.13-.67-.94.94-.82-1.66-1.77-.55-.94.94-.42.14-.83.19-1.1.63-6.8-.43-16.66,1.11-13.61-3.76,5.68-.04,11.48-1.61,15.49-5.95.85.6,2.64,2.92,2.97,3.13Z"/><path class="cls-2" d="M43.7,65.13c.48,0,2.45-.14,2.66.16v5.32c-6.75.06-8.12,2.83-6.57-5.01,1.23.03,3.71-.47,3.91-.47Z"/><path class="cls-2" d="M145.71,87.66c3.01.48,11.32-1.72,9.23,2.97-.31.69-14.23,2.19-9.23-2.97Z"/><path class="cls-2" d="M59.34,50.42c.42-.12,7.52,1.89,7.04,3.91-.75,3.2-8.97-.29-9.07-1.25-.02-.17,1.87-2.61,2.03-2.66Z"/><path class="cls-2" d="M39,87.66c6.27-1.06,5.07,3.26,3.44,3.76-.54.16-5.08-.02-5.32-.31-.45-.54-1.13-2.93,1.88-3.44Z"/><path class="cls-2" d="M91.57,97.98c.22-.15,5.1-.15,5.32,0,.2.14.27,3.75.16,3.91-.15.21-4.89.28-5.16.16-.78-.34-.52-3.92-.31-4.07Z"/><path class="cls-2" d="M77.49,46.04c1.06.71,0,3.79-.94,4.07-2.91-.64-5.68.01-8.76,0-5.84-4.45,5.08,3.06-.16-3.29.94-1.32.72,1.78,3.29,1.1.26-.07,3.83-2.79-.47,1.41,1.82.57,3.49-.14,4.69-1.56,1.15-4.09-.43,5.89,2.35-1.72Z"/><path class="cls-2" d="M111.91,46.66c1.95-.38.15,5.28,2.66,2.03.07-.09.41-1.89.78-2.03,1.58-.63.51,6.69,2.82,0,.6-.24,1.41,1.54,1.41,1.72,0,2.91-3.95,1.1-4.22,1.1-.31,0-5.49,1.84-4.54-1.72.02-.07,1.02-1.08,1.1-1.1Z"/><path class="cls-2" d="M84.38,59.18c3.68-.75,2.84,1.79,2.19,1.88-.16.02-2.05-2.03-2.66-.16-.83,2.52,2.83.75,3.13,1.56,1.89,5.07-.6.87-.78.78-.29-.15-1.14.89-2.5.63-2.48-.48-1.84-4.19.63-4.69Z"/><path class="cls-2" d="M103.47,58.87c4.61-.45,4.39,5.47.31,5.01-3.08-.35-1.92-3.96.31-3.13.93.34-.12,1.86.63,1.88,1.79.03,2.04-4.12-2.5-2.5-.63-.65,1.11-1.24,1.25-1.25Z"/><path class="cls-11" d="M119.11,122.39c1.58-.22,3.59,2.66,1.56,3.44-2.89,1.12-3.93-3.11-1.56-3.44Z"/><path class="cls-3" d="M69.36,121.77c1.39-.13,2.15,4.71-3.44,3.76-.23-.28,3.19-3.73,3.44-3.76Z"/><path class="cls-2" d="M83.44,54.49c3.42-.58,3.34,3.53,0,2.82-1.53-.33-2.22-2.44,0-2.82Z"/><path class="cls-2" d="M93.76,64.19c2.71-.44,3.47,1.9,1.88,2.5-2.64,1.01-4.93-2.01-1.88-2.5Z"/><path class="cls-2" d="M93.45,39.15c2.27-.74,2.53,3.7.63,3.76-1.49.04-1.86-3.35-.63-3.76Z"/><path class="cls-2" d="M102.53,81.09c1.94-.45,1.76,3.48.31,3.76-2.06.39-1.56-3.47-.31-3.76Z"/><path class="cls-2" d="M47.14,74.51c.77-.2,2.71,1.47,2.97,2.03,1.67,3.59-5.81-1.31-2.97-2.03Z"/><path class="cls-2" d="M139.45,73.58c1.75-.15,1.42,3.87-.94,3.44-2.36-.43.56-3.41.94-3.44Z"/><path class="cls-2" d="M34.62,87.97c2.57-1.19,2.04,2.77,1.25,3.13-2.31,1.05-2.06-2.75-1.25-3.13Z"/><path class="cls-2" d="M123.18,51.36c1.86-.14,1.1,2.57,0,3.13-2.69,1.36-.98-3.05,0-3.13Z"/><path class="cls-2" d="M94.08,44.79c1.29-.24,1.9,3.49.63,3.76-1.38.29-2.08-3.48-.63-3.76Z"/><path class="cls-2" d="M92.51,61.37c.16-.1,3.58-.07,3.76,0,3.86,1.44-6.96,2.14-3.76,0Z"/><path class="cls-2" d="M55.27,131.78c3.74-.93-2.8,2.56,1.41,4.22-2.63,1.5-3.4-3.73-1.41-4.22Z"/><path class="cls-2" d="M104.09,54.17c.48-.4,1.63.95,1.72,1.41.92,4.79-3.72.26-1.72-1.41Z"/><path class="cls-2" d="M84.06,81.4c.84-.41,1.38,1.2,1.41,1.72.3,4.94-3.58-.66-1.41-1.72Z"/><path class="cls-2" d="M38.06,80.46c5.51-1.06,6.01,2.1-1.1.47.42-.03,1.04-.46,1.1-.47Z"/><path class="cls-13" d="M75.93,54.49c1.53,1.3,1.34,2.75.31,4.38l-.31-4.38Z"/><path class="cls-2" d="M111.6,54.8l.94,3.44c-.22.07-1.65-2.37-.94-3.44Z"/><path class="cls-2" d="M97.36,141.79c-.08,1.73-.58,1.22-1.56.31.09-.12-1.12-2.25,1.56-.31Z"/><path class="cls-2" d="M76.24,130.84c1.36-.53,1.53,1.35.94,1.56-1.3.47-1.94-1.18-.94-1.56Z"/><path class="cls-2" d="M110.98,130.84c1.3-.47,1.94,1.18.94,1.56-1.36.53-1.53-1.35-.94-1.56Z"/><path class="cls-2" d="M94.86,143.05c-.07.15.8.69-.16,1.25-.33.2-.53-.4-.78-.31-.83-1.49.11-2.6.94-.94Z"/><path class="cls-2" d="M116.61,131.15c.72-.09,1.64.84.63,1.25-1.56.63-1.95-1.09-.63-1.25Z"/><path class="cls-2" d="M71.55,131.15c.91-.27,1.46.9.94,1.25-.83.56-2.08-.92-.94-1.25Z"/><path class="cls-2" d="M97.68,138.04c-.33-.21-2.13-2.53-2.97-3.13-4.01,4.34-9.81,5.9-15.49,5.95-4.21.03-13.17-1.3-15.33-5.48-4.08-7.88,4.25.94,16.74-.16,4.81-.42,10.11-3,12.05-7.67-.75-4.16-1.17-10.13-7.04-7.98q-1.17-3.05-2.35-6.1c6-2.33,16.13-2.87,21.9,0-1.67,8.76-2.89,3.53-7.2,7.2-1.36,5.16-3.14,8.95,2.66,12.36,10.42,6.13,22.25-1.49,23.47-1.56,2.64-.17,1.49,3.89-.94,5.95-5.43,4.6-19.59,4.43-25.5.63Z"/><path class="cls-6" d="M92.51,113.94c3.81-.39,8.78,1.09,8.61,1.72-2.54,1.4-4.78-1.8-6.73,1.41-.36-.39-1.18-1.16-1.56-1.25-4.11-.96,1.35.95,1.56,3.76.27.06.73-4.84,3.6-2.97-3.48,1.29-3.14,4.62-3.6,7.67.49-10.58-7.36-6.97-7.35-8.29,1.58-.9,3.68-1.85,5.48-2.03Z"/><path class="cls-2" d="M93.14,68.57c1.17-.31.69,3.71,1.72,2.03.45-.73.18-5.49,1.88,1.88-1.08,1.1-.74,5.37-.31,7.2-7.4,2.91-.77-3.39-4.07-6.57,1.7-1.31-.25-4.27.78-4.54Z"/><path class="cls-10" d="M94.39,72.64c1.48-.05,1,7.71-.47,5.48-.16-.24-.47-5.44.47-5.48Z"/><path class="cls-2" d="M146.02,76.39c6.71-1.37,4.28,8.56-.94,6.26-2.69-1.19-1.78-5.7.94-6.26Z"/><path class="cls-10" d="M146.34,77.64c.8-.16,2.14.16,2.35,1.1.69,3.05-2.03-.53-2.5.94-.25.77,2.76,3.34-.47,2.03-1.48-.6-1.18-3.71.63-4.07Z"/><path class="cls-2" d="M145.08,100.49c1.94-.41,3.26.93,3.44.94.26,0,3.87-2.18,4.54.47.03.12-.23,2.41-.31,2.5-.28.3-7.9.6-8.29.47-1.55-.51-1.68-3.89.63-4.38Z"/><path class="cls-10" d="M145.4,101.11c1.57-.37,2.95.91,3.13.94.15.03,1.41-.61,2.5-.31,4.7,1.29-7.66,4.38-7.04.78.07-.42.98-1.31,1.41-1.41Z"/><path class="cls-2" d="M95.64,83.59c.32,0,.64-.09.78.16.08,8.36.4,3.91-3.6,5.48q-.08-2.43-.16-4.85c2.07-.28,2.82-.78,2.97-.78Z"/><path class="cls-10" d="M94.39,85.15c1.14-.02,1,2.27.31,2.5-1.33.46-1.42-2.48-.31-2.5Z"/><path class="cls-2" d="M95.33,49.48c.21-.06.63-.06.78.16-1.61,4.27.4,2.92,0,4.38-.5,1.84-5.45,1.72-4.07-3.76,2.8,2.66,2.72-.61,3.29-.78Z"/><path class="cls-1" d="M93.14,52.61c.1-.03,1.77,1,1.72,1.1-.49,1.01-2.64-.82-1.72-1.1Z"/></g><path class="cls-14" d="M25.03,232c-2.69,0-5.22-.54-7.58-1.62-2.37-1.08-4.47-2.57-6.3-4.48-1.83-1.9-3.26-4.1-4.28-6.6-1.03-2.5-1.54-5.17-1.54-8s.52-5.27,1.57-7.64c1.05-2.37,2.49-4.46,4.34-6.27s3.98-3.23,6.41-4.25c2.43-1.03,5.02-1.54,7.78-1.54,1.19,0,2.48.11,3.86.34,1.38.22,2.73.57,4.06,1.04,1.32.47,2.47,1.04,3.44,1.71.78.52,1.5,1.08,2.16,1.68.65.6.98,1.34.98,2.24,0,.45-.11.93-.34,1.46-.22.52-.54,1.08-.95,1.68-.71,1.05-1.42,1.8-2.13,2.27-.71.47-1.38.7-2.02.7-.41,0-.83-.1-1.26-.31-.43-.2-1.02-.53-1.76-.98-.22-.15-.65-.34-1.29-.59-.63-.24-1.39-.47-2.27-.67-.88-.2-1.8-.31-2.77-.31-1.75,0-3.36.42-4.81,1.26-1.46.84-2.61,1.99-3.47,3.44-.86,1.46-1.29,3.08-1.29,4.87s.45,3.52,1.34,5.07c.9,1.55,2.08,2.8,3.55,3.75,1.47.95,3.07,1.43,4.79,1.43.67,0,1.33-.02,1.99-.06.65-.04,1.3-.11,1.93-.22.63-.11,1.19-.26,1.68-.45v-4.81h-4.14c-.67,0-1.31-.06-1.9-.2-.6-.13-1.08-.49-1.46-1.09s-.56-1.62-.56-3.08.2-2.48.62-3.08c.41-.6.93-.95,1.57-1.06.63-.11,1.27-.17,1.9-.17h9.79c1.49.04,2.54.31,3.13.81.6.5.96,1.11,1.09,1.82.13.71.2,1.46.2,2.24v11.47c0,1.05-.45,2.12-1.34,3.22-.9,1.1-2.11,2.04-3.64,2.83-.93.49-1.98.89-3.14,1.2-1.16.32-2.4.56-3.72.73-1.32.17-2.73.25-4.23.25Z"/><path class="cls-14" d="M82.23,224.34c.56,1.12.86,2.07.9,2.85s-.21,1.47-.73,2.07c-.52.6-1.36,1.19-2.52,1.79-1.79.86-3.17,1.13-4.14.81-.97-.32-1.88-1.39-2.74-3.22l-9.52-19.48-9.4,19.53c-.9,1.75-1.83,2.79-2.8,3.11-.97.32-2.33.05-4.09-.81-1.16-.56-2.01-1.14-2.55-1.73s-.79-1.29-.76-2.07.34-1.73.9-2.85l14.05-29.1c.45-.9,1.11-1.61,1.99-2.16.88-.54,1.78-.81,2.71-.81.67,0,1.3.12,1.88.36.58.24,1.11.59,1.6,1.04.48.45.88.99,1.17,1.62l14.05,29.05Z"/><path class="cls-14" d="M114.13,192.21c.71,0,1.38.06,2.02.17.63.11,1.16.47,1.6,1.06.43.6.64,1.62.64,3.08s-.22,2.43-.64,3.05c-.43.61-.97.98-1.62,1.09-.65.11-1.33.17-2.04.17h-7.72v25.63c0,.82-.08,1.61-.22,2.38-.15.77-.57,1.39-1.26,1.87-.69.49-1.89.73-3.61.73s-2.82-.25-3.53-.76c-.71-.5-1.13-1.14-1.26-1.9-.13-.76-.2-1.56-.2-2.38v-25.58h-7.78c-.67,0-1.33-.06-1.99-.2-.65-.13-1.19-.5-1.62-1.09-.43-.6-.64-1.62-.64-3.08s.21-2.43.64-3.02c.43-.6.98-.95,1.65-1.06.67-.11,1.34-.17,2.02-.17h25.58Z"/><path class="cls-14" d="M134.9,231.95c-1.72,0-3.45-.35-5.2-1.04-1.75-.69-3.37-1.68-4.84-2.97s-2.65-2.83-3.53-4.65c-.88-1.81-1.32-3.83-1.32-6.07,0-2.05.39-3.97,1.18-5.76.78-1.79,1.86-3.37,3.22-4.73,1.36-1.36,2.93-2.43,4.7-3.22s3.67-1.18,5.68-1.18c2.76,0,5.26.66,7.5,1.99,2.24,1.32,4.03,3.11,5.37,5.35,1.34,2.24,2.02,4.74,2.02,7.5,0,2.35-.45,4.44-1.34,6.27-.9,1.83-2.07,3.38-3.53,4.65-1.46,1.27-3.05,2.23-4.79,2.88-1.73.65-3.44.98-5.12.98ZM134.79,221.7c.56,0,1.2-.14,1.93-.42.73-.28,1.36-.76,1.9-1.43.54-.67.81-1.59.81-2.74,0-.93-.2-1.74-.59-2.41-.39-.67-.94-1.19-1.65-1.57-.71-.37-1.53-.56-2.46-.56-.82,0-1.57.2-2.24.59-.67.39-1.21.93-1.62,1.62-.41.69-.62,1.48-.62,2.38,0,1.12.26,2.01.78,2.69.52.67,1.14,1.15,1.85,1.43.71.28,1.34.42,1.9.42Z"/><path class="cls-14" d="M165.63,232c-2.28,0-4.21-.28-5.79-.84-1.59-.56-2.88-1.22-3.89-1.99-1.01-.76-1.77-1.46-2.29-2.1-.52-.63-.84-1.03-.95-1.17-.75-.93-1.2-1.77-1.37-2.52-.17-.75-.06-1.49.34-2.24.39-.75,1.05-1.57,1.99-2.46.86-.82,1.7-1.28,2.52-1.37.82-.09,1.63.08,2.43.53.8.45,1.58,1.1,2.32,1.96.9,1.01,1.66,1.69,2.29,2.04.63.36,1.36.53,2.18.53,1.01,0,1.83-.12,2.46-.36.63-.24,1.1-.62,1.4-1.12.3-.5.45-1.15.45-1.93,0-.63-.32-1.13-.95-1.48-.63-.35-1.47-.66-2.49-.92-1.03-.26-2.17-.55-3.44-.87-1.27-.32-2.52-.74-3.75-1.26-.75-.3-1.48-.67-2.18-1.12-.71-.45-1.37-.96-1.99-1.54s-1.15-1.27-1.6-2.07c-.45-.8-.79-1.71-1.04-2.71-.24-1.01-.36-2.15-.36-3.41,0-2.28.57-4.31,1.71-6.1,1.14-1.79,2.71-3.21,4.7-4.25,2-1.04,4.26-1.57,6.8-1.57,1.83,0,3.39.15,4.7.45,1.31.3,2.38.65,3.22,1.06.84.41,1.48.79,1.93,1.15.45.36.73.59.84.7,1.23,1.12,1.9,2.08,2.01,2.88.11.8-.34,1.95-1.34,3.44-1.12,1.6-2.22,2.51-3.3,2.71-1.08.21-2.33-.14-3.75-1.04-.3-.22-.6-.48-.9-.76-.3-.28-.7-.52-1.2-.73s-1.26-.31-2.27-.31c-.37,0-.75.06-1.12.2s-.69.3-.95.5c-.26.21-.48.46-.64.76-.17.3-.25.61-.25.95,0,.78.3,1.39.9,1.82.6.43,1.39.76,2.38.98.99.22,2.08.45,3.27.67,1.19.22,2.41.52,3.64.9,1.01.34,1.98.77,2.91,1.29.93.52,1.75,1.19,2.46,2.02.71.82,1.28,1.84,1.71,3.05.43,1.21.64,2.7.64,4.45,0,2.43-.47,4.49-1.4,6.18-.93,1.7-2.14,3.06-3.61,4.09-1.48,1.03-3.04,1.77-4.7,2.24-1.66.47-3.22.7-4.67.7Z"/></g></g></svg>